<svg width="137" height="28" viewBox="0 0 137 28" fill="none" xmlns="http://www.w3.org/2000/svg">
<path d="M18.656 17.6164C17.6747 19.0244 16.48 20.0804 15.072 20.7844C13.6853 21.4884 12.2773 21.8404 10.848 21.8404C9.35467 21.8404 7.94667 21.6377 6.624 21.2324C5.30133 20.8057 4.14933 20.1657 3.168 19.3124C2.18667 18.4591 1.408 17.3817 0.832 16.0804C0.277333 14.7791 0 13.2431 0 11.4724C0 9.61639 0.288 8.01639 0.864 6.67239C1.46133 5.32839 2.26133 4.22972 3.264 3.37639C4.288 2.50172 5.472 1.86172 6.816 1.45639C8.18133 1.02972 9.632 0.816391 11.168 0.816391C12.4267 0.816391 13.6533 0.976391 14.848 1.29639C16.0427 1.61639 17.12 2.09639 18.08 2.73639C19.04 3.35506 19.84 4.12306 20.48 5.04039C21.1413 5.93639 21.5573 6.97106 21.728 8.14439H18.08C17.568 6.65106 16.704 5.57372 15.488 4.91239C14.272 4.22972 12.832 3.88839 11.168 3.88839C10.08 3.88839 9.07733 4.02706 8.16 4.30439C7.24267 4.56039 6.44267 4.98706 5.76 5.58439C5.07733 6.18172 4.544 6.96039 4.16 7.92039C3.776 8.88039 3.584 10.0431 3.584 11.4084C3.584 12.7097 3.776 13.8297 4.16 14.7684C4.544 15.6857 5.06667 16.4431 5.728 17.0404C6.41067 17.6377 7.2 18.0751 8.096 18.3524C9.01333 18.6297 10.0053 18.7684 11.072 18.7684C11.712 18.7684 12.352 18.7257 12.992 18.6404C13.632 18.5337 14.2613 18.3204 14.88 18.0004C15.4987 17.6591 16.096 17.1684 16.672 16.5284C17.2693 15.8884 17.824 15.0244 18.336 13.9364H11.808V11.3764H21.76V21.6164H18.656V17.6164Z" fill="#0D0D12"/>
<path d="M24.8862 2.41639C24.8862 1.92572 25.0782 1.46706 25.4622 1.04039C25.8676 0.613724 26.4116 0.400391 27.0942 0.400391C27.7556 0.400391 28.2889 0.592391 28.6943 0.976391C29.0996 1.36039 29.3022 1.81906 29.3022 2.35239C29.3022 2.88572 29.1103 3.36572 28.7263 3.79239C28.3423 4.21906 27.7983 4.43239 27.0942 4.43239C26.4116 4.43239 25.8676 4.22972 25.4622 3.82439C25.0782 3.41906 24.8862 2.94972 24.8862 2.41639ZM25.3663 21.6164V6.12839H28.7903V21.6164H25.3663Z" fill="#0D0D12"/>
<path d="M40.855 24.6244C41.4737 24.6244 42.0283 24.5924 42.519 24.5284C43.031 24.4857 43.4683 24.3577 43.831 24.1444C44.1937 23.9311 44.471 23.6217 44.663 23.2164C44.855 22.8324 44.9617 22.2884 44.983 21.5844V17.6804C44.727 18.2777 44.407 18.8217 44.023 19.3124C43.639 19.7817 43.2123 20.1764 42.743 20.4964C42.295 20.8164 41.815 21.0617 41.303 21.2324C40.791 21.4031 40.2897 21.4884 39.799 21.4884C38.583 21.5311 37.4843 21.3604 36.503 20.9764C35.543 20.5711 34.711 20.0164 34.007 19.3124C33.3243 18.6084 32.791 17.7764 32.407 16.8164C32.0443 15.8351 31.863 14.8004 31.863 13.7124C31.863 12.6244 32.0443 11.6004 32.407 10.6404C32.791 9.68039 33.3243 8.85906 34.007 8.17639C34.6897 7.47239 35.511 6.92839 36.471 6.54439C37.4523 6.13906 38.551 5.94706 39.767 5.96839C40.855 5.98972 41.847 6.30972 42.743 6.92839C43.639 7.52572 44.439 8.51772 45.143 9.90439V6.09639H48.439V21.5524C48.439 23.7497 47.831 25.3071 46.615 26.2244C45.4203 27.1417 43.5963 27.6004 41.143 27.6004H33.815V24.6244H40.855ZM40.215 18.6084C40.919 18.6084 41.559 18.4911 42.135 18.2564C42.7323 18.0217 43.2443 17.6911 43.671 17.2644C44.0977 16.8377 44.4283 16.3257 44.663 15.7284C44.919 15.1097 45.047 14.4377 45.047 13.7124C45.047 12.9657 44.9297 12.2937 44.695 11.6964C44.4603 11.0991 44.119 10.5871 43.671 10.1604C43.2443 9.73372 42.7323 9.41372 42.135 9.20039C41.559 8.96572 40.919 8.84839 40.215 8.84839C38.7857 8.84839 37.6123 9.28572 36.695 10.1604C35.7777 11.0137 35.319 12.1977 35.319 13.7124C35.319 14.4377 35.4363 15.1097 35.671 15.7284C35.927 16.3257 36.2683 16.8377 36.695 17.2644C37.143 17.6911 37.6657 18.0217 38.263 18.2564C38.8603 18.4911 39.511 18.6084 40.215 18.6084Z" fill="#0D0D12"/>
<path d="M60.2537 24.6244C60.8724 24.6244 61.4271 24.5924 61.9178 24.5284C62.4298 24.4857 62.8671 24.3577 63.2298 24.1444C63.5924 23.9311 63.8698 23.6217 64.0618 23.2164C64.2538 22.8324 64.3604 22.2884 64.3818 21.5844V17.6804C64.1258 18.2777 63.8058 18.8217 63.4218 19.3124C63.0378 19.7817 62.6111 20.1764 62.1418 20.4964C61.6937 20.8164 61.2138 21.0617 60.7018 21.2324C60.1898 21.4031 59.6884 21.4884 59.1978 21.4884C57.9818 21.5311 56.8831 21.3604 55.9018 20.9764C54.9418 20.5711 54.1097 20.0164 53.4058 19.3124C52.7231 18.6084 52.1898 17.7764 51.8058 16.8164C51.4431 15.8351 51.2617 14.8004 51.2617 13.7124C51.2617 12.6244 51.4431 11.6004 51.8058 10.6404C52.1898 9.68039 52.7231 8.85906 53.4058 8.17639C54.0884 7.47239 54.9098 6.92839 55.8698 6.54439C56.8511 6.13906 57.9498 5.94706 59.1658 5.96839C60.2538 5.98972 61.2458 6.30972 62.1418 6.92839C63.0378 7.52572 63.8377 8.51772 64.5417 9.90439V6.09639H67.8378V21.5524C67.8378 23.7497 67.2298 25.3071 66.0137 26.2244C64.8191 27.1417 62.9951 27.6004 60.5418 27.6004H53.2138V24.6244H60.2537ZM59.6138 18.6084C60.3177 18.6084 60.9578 18.4911 61.5338 18.2564C62.1311 18.0217 62.6431 17.6911 63.0698 17.2644C63.4964 16.8377 63.8271 16.3257 64.0618 15.7284C64.3177 15.1097 64.4458 14.4377 64.4458 13.7124C64.4458 12.9657 64.3284 12.2937 64.0938 11.6964C63.8591 11.0991 63.5178 10.5871 63.0698 10.1604C62.6431 9.73372 62.1311 9.41372 61.5338 9.20039C60.9578 8.96572 60.3177 8.84839 59.6138 8.84839C58.1844 8.84839 57.0111 9.28572 56.0938 10.1604C55.1764 11.0137 54.7178 12.1977 54.7178 13.7124C54.7178 14.4377 54.8351 15.1097 55.0698 15.7284C55.3258 16.3257 55.6671 16.8377 56.0938 17.2644C56.5418 17.6911 57.0644 18.0217 57.6618 18.2564C58.2591 18.4911 58.9098 18.6084 59.6138 18.6084Z" fill="#0D0D12"/>
<path d="M86.0845 16.5284C85.9778 17.5311 85.7112 18.3631 85.2845 19.0244C84.8578 19.6857 84.3032 20.2084 83.6205 20.5924C82.9592 20.9764 82.1805 21.2431 81.2845 21.3924C80.4098 21.5417 79.4605 21.6164 78.4365 21.6164C77.2205 21.6164 76.1218 21.4457 75.1405 21.1044C74.1805 20.7417 73.3592 20.2404 72.6765 19.6004C71.9938 18.9391 71.4605 18.1391 71.0765 17.2004C70.7138 16.2404 70.5325 15.1631 70.5325 13.9684C70.5325 13.0084 70.6712 12.0484 70.9485 11.0884C71.2258 10.1284 71.6845 9.27506 72.3245 8.52839C72.9645 7.76039 73.8072 7.14173 74.8525 6.67239C75.9192 6.18173 77.2205 5.93639 78.7565 5.93639C80.0365 5.93639 81.1565 6.14972 82.1165 6.57639C83.0765 6.98172 83.8765 7.56839 84.5165 8.33639C85.1565 9.10439 85.6258 10.0217 85.9245 11.0884C86.2232 12.1551 86.3512 13.3391 86.3085 14.6404H73.8605C73.8818 15.9204 74.3298 16.9551 75.2045 17.7444C76.1005 18.5124 77.2525 18.8964 78.6605 18.8964C79.5778 18.8964 80.3032 18.8111 80.8365 18.6404C81.3912 18.4697 81.8178 18.2671 82.1165 18.0324C82.4152 17.7764 82.6178 17.5097 82.7245 17.2324C82.8525 16.9551 82.9485 16.7204 83.0125 16.5284H86.0845ZM83.1085 12.8164C83.0658 12.2831 82.9485 11.7817 82.7565 11.3124C82.5858 10.8217 82.3192 10.3951 81.9565 10.0324C81.5938 9.64839 81.1352 9.34972 80.5805 9.13639C80.0258 8.92306 79.3432 8.81639 78.5325 8.81639C77.8498 8.81639 77.2312 8.93373 76.6765 9.16839C76.1218 9.38173 75.6418 9.68039 75.2365 10.0644C74.8312 10.4271 74.5112 10.8537 74.2765 11.3444C74.0418 11.8137 73.9138 12.3044 73.8925 12.8164H83.1085Z" fill="#0D0D12"/>
<path d="M89.334 6.12839H92.726V10.1604C93.0887 8.75239 93.6753 7.71772 94.486 7.05639C95.2967 6.37372 96.2887 6.03239 97.462 6.03239H99.894V9.10439L97.174 9.13639C96.5553 9.13639 95.9793 9.26439 95.446 9.52039C94.9127 9.77639 94.4433 10.1284 94.038 10.5764C93.6327 11.0031 93.3127 11.5151 93.078 12.1124C92.8647 12.6884 92.758 13.2964 92.758 13.9364V21.6164H89.334V6.12839Z" fill="#0D0D12"/>
<path d="M100.785 21.6164V19.8564L110.001 8.84839H101.232V6.09639H114.449V7.88839L105.265 18.8644H114.449V21.6164H100.785Z" fill="#0D0D12"/>
<path d="M121.473 9.22039V1.49239H118.449V0.400391H125.743V1.49239H122.719V9.22039H121.473Z" fill="#0D0D12"/>
<path d="M127.21 0.400391H129.17L131.914 6.71439L134.938 0.400391H136.59V9.22039H135.386V2.71039L135.498 1.49239L132.628 7.65239H131.2L128.274 1.04439L128.414 2.71039V9.22039H127.21V0.400391Z" fill="#0D0D12"/>
</svg>
